<svg xmlns="http://www.w3.org/2000/svg" viewBox="0 0 400 400" width="400" height="400">
  <defs>
    <radialGradient id="g" cx="38%" cy="30%" r="80%">
      <stop offset="0" stop-color="#e8f4f9" stop-opacity=".55"/>
      <stop offset=".45" stop-color="#7fa3b5" stop-opacity=".38"/>
      <stop offset="1" stop-color="#2c4251" stop-opacity=".55"/>
    </radialGradient>
    <linearGradient id="rim" x1="0" y1="0" x2="1" y2="1">
      <stop offset="0" stop-color="#fff" stop-opacity=".95"/>
      <stop offset=".55" stop-color="#cfe6ef" stop-opacity=".35"/>
      <stop offset="1" stop-color="#fff" stop-opacity=".75"/>
    </linearGradient>
    <filter id="soft" x="-20%" y="-20%" width="140%" height="140%"><feGaussianBlur stdDeviation="10"/></filter>
  </defs>
  <ellipse cx="210" cy="330" rx="130" ry="18" fill="#14212a" opacity=".35" filter="url(#soft)"/>
  <path d="M96 118h150a40 40 0 0 1 40 40v74a40 40 0 0 1-40 40h-92l-44 34 8-34h-22a40 40 0 0 1-40-40v-74a40 40 0 0 1 40-40z"
        fill="url(#g)" stroke="url(#rim)" stroke-width="3"/>
  <circle cx="126" cy="196" r="11" fill="#fff" opacity=".85"/>
  <circle cx="166" cy="196" r="11" fill="#fff" opacity=".6"/>
  <circle cx="206" cy="196" r="11" fill="#ead399"/>
  <path d="M232 70h96a34 34 0 0 1 34 34v44a34 34 0 0 1-34 34h-8l4 30-36-30h-56a34 34 0 0 1-34-34v-44a34 34 0 0 1 34-34z"
        fill="url(#g)" stroke="url(#rim)" stroke-width="3" opacity=".92"/>
  <path d="M244 86q30-10 62-4" stroke="#fff" stroke-width="6" stroke-linecap="round" fill="none" opacity=".55"/>
  <path d="M106 134q40-12 90-6" stroke="#fff" stroke-width="7" stroke-linecap="round" fill="none" opacity=".5"/>
</svg>
